G04 #@! TF.GenerationSoftware,KiCad,Pcbnew,(5.1.2)-2*
G04 #@! TF.CreationDate,2019-11-03T01:06:29-05:00*
G04 #@! TF.ProjectId,dak-window-servo-pcb,64616b2d-7769-46e6-946f-772d73657276,rev?*
G04 #@! TF.SameCoordinates,PX6a95280PY7445a00*
G04 #@! TF.FileFunction,Copper,L2,Bot*
G04 #@! TF.FilePolarity,Positive*
%FSLAX46Y46*%
G04 Gerber Fmt 4.6, Leading zero omitted, Abs format (unit mm)*
G04 Created by KiCad (PCBNEW (5.1.2)-2) date 2019-11-03 01:06:29*
%MOMM*%
%LPD*%
G04 APERTURE LIST*
%ADD10O,4.000000X2.140000*%
%ADD11O,4.000000X2.150000*%
%ADD12C,1.400000*%
G04 APERTURE END LIST*
D10*
X58240000Y18415000D03*
X58240000Y20955000D03*
X9240000Y8840000D03*
X9240000Y11380000D03*
X9240000Y13920000D03*
D11*
X44980000Y11299999D03*
X44980000Y13839999D03*
X44980000Y16379999D03*
X44980000Y18919999D03*
X44980000Y21459999D03*
X44980000Y23999999D03*
X44980000Y26539999D03*
X44980000Y29079999D03*
X44980000Y31619999D03*
X44980000Y34159999D03*
X44980000Y36699999D03*
X44980000Y39239999D03*
X44980000Y41779999D03*
X44980000Y44319999D03*
X44980000Y46859999D03*
X19580000Y11299999D03*
X19580000Y13839999D03*
X19580000Y16379999D03*
X19580000Y18919999D03*
X19580000Y21459999D03*
X19580000Y23999999D03*
X19580000Y26539999D03*
X19580000Y29079999D03*
X19580000Y31619999D03*
X19580000Y34159999D03*
X19580000Y36699999D03*
X19580000Y39239999D03*
X19580000Y41779999D03*
X19580000Y44319999D03*
X19580000Y46859999D03*
D12*
X48380000Y13839999D02*
X44980000Y13839999D01*
X56134999Y13839999D02*
X48380000Y13839999D01*
X58240000Y15945000D02*
X56134999Y13839999D01*
X58240000Y18415000D02*
X58240000Y15945000D01*
X57735001Y21459999D02*
X44980000Y21459999D01*
X58240000Y20955000D02*
X57735001Y21459999D01*
X6320000Y8840000D02*
X9240000Y8840000D01*
X15780001Y16379999D02*
X13240000Y18920000D01*
X13240000Y18920000D02*
X6240000Y18920000D01*
X6240000Y18920000D02*
X4240000Y16920000D01*
X4240000Y16920000D02*
X4240000Y10920000D01*
X4240000Y10920000D02*
X6320000Y8840000D01*
X15780001Y16379999D02*
X19580000Y16379999D01*
X9320001Y11299999D02*
X9240000Y11380000D01*
X19499999Y11380000D02*
X19580000Y11299999D01*
X9240000Y11380000D02*
X19499999Y11380000D01*
X9320001Y13839999D02*
X9240000Y13920000D01*
X19580000Y13839999D02*
X9320001Y13839999D01*
M02*
