M48
; DRILL file {KiCad (5.1.2)-2} date 11/3/2019 1:06:31 AM
; FORMAT={-:-/ absolute / inch / decimal}
; #@! TF.CreationDate,2019-11-03T01:06:31-05:00
; #@! TF.GenerationSoftware,Kicad,Pcbnew,(5.1.2)-2
FMAT,2
INCH
T1C0.0394
T2C0.1260
%
G90
G05
T1
X0.7709Y1.8449
X0.7709Y1.7449
X0.7709Y1.6449
X0.7709Y1.5449
X0.7709Y1.4449
X0.7709Y1.3449
X0.7709Y1.2449
X0.7709Y1.1449
X0.7709Y1.0449
X0.7709Y0.9449
X0.7709Y0.8449
X0.7709Y0.7449
X0.7709Y0.6449
X0.7709Y0.5449
X0.7709Y0.4449
X1.7709Y1.8449
X1.7709Y1.7449
X1.7709Y1.6449
X1.7709Y1.5449
X1.7709Y1.4449
X1.7709Y1.3449
X1.7709Y1.2449
X1.7709Y1.1449
X1.7709Y1.0449
X1.7709Y0.9449
X1.7709Y0.8449
X1.7709Y0.7449
X1.7709Y0.6449
X1.7709Y0.5449
X1.7709Y0.4449
X2.2929Y0.825
X2.2929Y0.725
X0.3638Y0.548
X0.3638Y0.448
X0.3638Y0.348
T2
X2.2Y0.3
X0.3Y1.9
T0
M30
